<svg xmlns="http://www.w3.org/2000/svg" viewBox="0 0 512 512">
    <!-- ApnaCart Background (Vibrant Orange) -->
    <rect width="512" height="512" rx="120" fill="#ff5722"/>
    
    <!-- Bold Cart Icon (White) -->
    <path fill="#ffffff" d="M160 144c0-17.673-14.327-32-32-32H64c-17.673 0-32 14.327-32 32s14.327 32 32 32h32l42.4 201.2C143.1 391 155 400 169 400h187c14.6 0 27-10 29.8-24.4l33.8-173.6C423 184.8 409.8 176 396 176H179.7l-9.1-43.2C167.3 147 163.5 144 160 144zM192 464c26.5 0 48-21.5 48-48s-21.5-48-48-48-48 21.5-48 48 21.5 48 48 48zm160 0c26.5 0 48-21.5 48-48s-21.5-48-48-48-48 21.5-48 48 21.5 48 48 48z"/>
    
</svg>
